<svg width="48" height="48" viewBox="0 0 48 48" fill="none" xmlns="http://www.w3.org/2000/svg">
<rect width="48" height="48" fill="white"/>
<mask id="mask0_15301_30198" style="mask-type:alpha" maskUnits="userSpaceOnUse" x="12" y="12" width="24" height="24">
<rect x="12" y="12" width="24" height="24" fill="#D9D9D9"/>
</mask>
<g mask="url(#mask0_15301_30198)">
<path d="M24.0008 25.3998L19.1008 30.2998C18.9174 30.4831 18.6841 30.5748 18.4008 30.5748C18.1174 30.5748 17.8841 30.4831 17.7008 30.2998C17.5174 30.1165 17.4258 29.8831 17.4258 29.5998C17.4258 29.3165 17.5174 29.0831 17.7008 28.8998L22.6008 23.9998L17.7008 19.0998C17.5174 18.9165 17.4258 18.6831 17.4258 18.3998C17.4258 18.1165 17.5174 17.8831 17.7008 17.6998C17.8841 17.5165 18.1174 17.4248 18.4008 17.4248C18.6841 17.4248 18.9174 17.5165 19.1008 17.6998L24.0008 22.5998L28.9008 17.6998C29.0841 17.5165 29.3174 17.4248 29.6008 17.4248C29.8841 17.4248 30.1174 17.5165 30.3008 17.6998C30.4841 17.8831 30.5758 18.1165 30.5758 18.3998C30.5758 18.6831 30.4841 18.9165 30.3008 19.0998L25.4008 23.9998L30.3008 28.8998C30.4841 29.0831 30.5758 29.3165 30.5758 29.5998C30.5758 29.8831 30.4841 30.1165 30.3008 30.2998C30.1174 30.4831 29.8841 30.5748 29.6008 30.5748C29.3174 30.5748 29.0841 30.4831 28.9008 30.2998L24.0008 25.3998Z" fill="#181F29"/>
</g>
</svg>
