<svg width="147" height="32" viewBox="0 0 147 32" fill="none" xmlns="http://www.w3.org/2000/svg">
<path fill-rule="evenodd" clip-rule="evenodd" d="M8.79302 4.10254H44.3778C45.0224 4.10254 45.6606 4.23563 46.2561 4.4942C46.8517 4.75269 47.3927 5.13167 47.8485 5.60939C48.3043 6.08719 48.6658 6.6543 48.9124 7.27852C49.1591 7.90274 49.2861 8.57177 49.2861 9.24739V21.1448C49.2861 21.8204 49.1591 22.4895 48.9124 23.1137C48.6658 23.7378 48.3043 24.305 47.8485 24.7827C47.3927 25.2605 46.8517 25.6394 46.2561 25.898C45.6606 26.1566 45.0224 26.2897 44.3778 26.2897H32.9577C31.1422 27.3264 28.9036 27.8974 26.5854 27.8974C24.2672 27.8974 22.0286 27.3264 20.2131 26.2897H8.79302C8.14848 26.2897 7.51021 26.1566 6.9147 25.898C6.31918 25.6394 5.77815 25.2605 5.32232 24.7827C4.86657 24.305 4.50502 23.7378 4.25842 23.1137C4.01174 22.4895 3.88477 21.8204 3.88477 21.1448V9.24739C3.88477 7.88291 4.40189 6.57427 5.32232 5.60939C6.24283 4.64459 7.49129 4.10254 8.79302 4.10254ZM8.79302 23.7172H17.3154C16.5601 22.6334 16.1554 21.4222 16.1554 20.1802C16.1554 19.589 16.2665 19.0036 16.4823 18.4574C16.6981 17.9113 17.0145 17.415 17.4133 16.997C17.8121 16.5789 18.2855 16.2474 18.8066 16.0211C19.3276 15.7949 19.8862 15.6784 20.4501 15.6784C21.0141 15.6784 21.5726 15.7949 22.0936 16.0211C22.6147 16.2474 23.0882 16.5789 23.4869 16.997C23.8857 17.415 24.2021 17.9113 24.4179 18.4574C24.6338 19.0036 24.7449 19.589 24.7449 20.1802C24.7449 21.8126 24.0458 23.3916 22.7705 24.6983C23.9307 25.1059 25.2405 25.325 26.5854 25.325C27.9304 25.325 29.2402 25.1059 30.4003 24.6983C29.125 23.3916 28.426 21.8126 28.426 20.1802C28.426 19.589 28.5371 19.0036 28.753 18.4574C28.9688 17.9113 29.2851 17.415 29.6839 16.997C30.0827 16.5789 30.5561 16.2474 31.0772 16.0211C31.5983 15.7949 32.1568 15.6784 32.7207 15.6784C33.2848 15.6784 33.8432 15.7949 34.3643 16.0211C34.8853 16.2474 35.3588 16.5789 35.7575 16.997C36.1564 17.415 36.4727 17.9113 36.6886 18.4574C36.9044 19.0036 37.0155 19.589 37.0155 20.1802C37.0155 21.4222 36.6108 22.6334 35.8555 23.7172H44.3778C44.7001 23.7172 45.0193 23.6507 45.317 23.5215C45.6147 23.3922 45.8853 23.2027 46.1131 22.9638C46.341 22.7249 46.5218 22.4413 46.6452 22.1292C46.7685 21.8171 46.832 21.4826 46.832 21.1448V9.24739C46.832 8.90958 46.7685 8.57502 46.6452 8.26299C46.5218 7.95088 46.341 7.66725 46.1131 7.42843C45.8853 7.18953 45.6147 7.00004 45.317 6.87076C45.0193 6.74147 44.7001 6.67492 44.3778 6.67492H8.79302C8.14212 6.67492 7.51793 6.94595 7.05771 7.42843C6.59742 7.91083 6.33886 8.56511 6.33886 9.24739V21.1448C6.33886 21.4826 6.40234 21.8171 6.52568 22.1292C6.64902 22.4413 6.8298 22.7249 7.05771 22.9638C7.28555 23.2027 7.55614 23.3922 7.8539 23.5215C8.15158 23.6507 8.47075 23.7172 8.79302 23.7172ZM20.4501 23.4676C21.6346 22.5478 22.2907 21.3858 22.2907 20.1802C22.2907 19.9268 22.2431 19.6759 22.1506 19.4418C22.0581 19.2078 21.9226 18.9951 21.7516 18.8159C21.5807 18.6368 21.3778 18.4946 21.1544 18.3977C20.9311 18.3008 20.6918 18.2508 20.4501 18.2508C20.2084 18.2508 19.9691 18.3008 19.7457 18.3977C19.5224 18.4946 19.3195 18.6368 19.1486 18.8159C18.9777 18.9951 18.8422 19.2078 18.7496 19.4418C18.6571 19.6759 18.6095 19.9268 18.6095 20.1802C18.6095 21.3858 19.2655 22.5478 20.4501 23.4676ZM34.5613 20.1802C34.5613 21.3858 33.9053 22.5478 32.7207 23.4676C31.5362 22.5478 30.8802 21.3858 30.8802 20.1802C30.8802 19.9268 30.9277 19.6759 31.0202 19.4418C31.1128 19.2078 31.2483 18.9951 31.4192 18.8159C31.5902 18.6368 31.793 18.4946 32.0164 18.3977C32.2397 18.3008 32.479 18.2508 32.7207 18.2508C32.9624 18.2508 33.2018 18.3008 33.4251 18.3977C33.6484 18.4946 33.8513 18.6368 34.0222 18.8159C34.1932 18.9951 34.3287 19.2078 34.4212 19.4418C34.5137 19.6759 34.5613 19.9268 34.5613 20.1802Z" fill="#181F29"/>
<path fill-rule="evenodd" clip-rule="evenodd" d="M73.65 6.48242C73.1484 6.48242 72.742 6.90859 72.742 7.43422V12.1932H70.926V6.72037C70.926 6.58894 70.8246 6.48242 70.699 6.48242H69.5639C69.0622 6.48242 68.6559 6.90859 68.6559 7.43422V19.5696C68.6559 19.701 68.7573 19.8075 68.8829 19.8075H70.0179C70.5196 19.8075 70.926 19.3814 70.926 18.8558V14.0968H72.742V19.5696C72.742 19.701 72.8434 19.8075 72.969 19.8075H74.1041C74.6057 19.8075 75.0121 19.3814 75.0121 18.8558V6.72037C75.0121 6.58894 74.9107 6.48242 74.7851 6.48242H73.65ZM57.3056 21.2352C57.3056 20.9724 57.5091 20.7593 57.7596 20.7593H59.3486C59.4742 20.7593 59.5756 20.8659 59.5756 20.9973V21.7111C59.5756 22.216 60.293 22.7002 61.5703 23.0572C62.8476 23.4141 64.5796 23.6147 66.3858 23.6147H74.7851C74.9107 23.6147 75.0121 23.7213 75.0121 23.8527V24.5665C75.0121 25.0922 74.6057 25.5183 74.1041 25.5183H66.3858C63.9773 25.5183 61.6679 25.1172 59.9653 24.4032C58.262 23.6892 57.3056 22.7208 57.3056 21.7111V21.2352ZM62.2997 12.1932C59.2911 12.1932 56.8516 13.8977 56.8516 16.0004C56.8516 18.103 59.2911 19.8075 62.2997 19.8075C65.3083 19.8075 67.7479 18.103 67.7479 16.0004C67.7479 13.8977 65.3083 12.1932 62.2997 12.1932ZM62.2997 14.0968C60.5442 14.0968 59.1216 14.949 59.1216 16.0004C59.1216 17.0517 60.5442 17.904 62.2997 17.904C64.0552 17.904 65.4778 17.0517 65.4778 16.0004C65.4778 14.949 64.0552 14.0968 62.2997 14.0968ZM57.7596 9.33781C57.2579 9.33781 56.8516 9.76397 56.8516 10.2896V11.0034C56.8516 11.1349 56.953 11.2414 57.0786 11.2414H66.8399C67.3415 11.2414 67.7479 10.8152 67.7479 10.2896V9.57576C67.7479 9.44433 67.6465 9.33781 67.5209 9.33781H57.7596ZM58.6676 7.43422C58.6676 6.90859 59.074 6.48242 59.5756 6.48242H65.7048C65.8304 6.48242 65.9318 6.58894 65.9318 6.72037V7.43422C65.9318 7.95985 65.5255 8.38601 65.0238 8.38601H58.8946C58.769 8.38601 58.6676 8.27949 58.6676 8.14806V7.43422ZM96.3507 6.48242C95.849 6.48242 95.4427 6.90859 95.4427 7.43422V25.2804C95.4427 25.4118 95.5441 25.5183 95.6697 25.5183H96.8047C97.3064 25.5183 97.7127 25.0922 97.7127 24.5665V6.72037C97.7127 6.58894 97.6113 6.48242 97.4857 6.48242H96.3507ZM90.9025 16.9522C90.6521 16.9522 90.4485 17.1652 90.4485 17.4281C90.4485 17.6156 90.3373 17.8012 90.1201 17.9744C89.9037 18.1476 89.5859 18.305 89.1856 18.4376C88.7846 18.5701 88.3094 18.6753 87.7858 18.7471C87.2629 18.8188 86.7022 18.8558 86.1354 18.8558C85.5687 18.8558 85.0079 18.8188 84.4851 18.7471C83.9614 18.6753 83.4862 18.5701 83.0852 18.4376C82.6849 18.305 82.3671 18.1476 82.1507 17.9744C81.9335 17.8012 81.8223 17.6156 81.8223 17.4281V8.38601H91.8106C92.3123 8.38601 92.7186 7.95985 92.7186 7.43422V6.72037C92.7186 6.58894 92.6172 6.48242 92.4916 6.48242H80.4602C79.9586 6.48242 79.5522 6.90859 79.5522 7.43422V8.38601V17.4281C79.5522 18.3116 80.2461 19.1589 81.4803 19.7836C82.7152 20.4084 84.3897 20.7593 86.1354 20.7593C87.8811 20.7593 89.5556 20.4084 90.7906 19.7836C92.0247 19.1589 92.7186 18.3116 92.7186 17.4281V17.1901C92.7186 17.0587 92.6172 16.9522 92.4916 16.9522H90.9025ZM139.652 7.87633C141.142 8.76879 141.979 9.97924 141.979 11.2414V18.8558C141.979 19.3814 141.573 19.8075 141.071 19.8075H139.936C139.81 19.8075 139.709 19.701 139.709 19.5696V11.2414C139.709 10.8664 139.562 10.4951 139.277 10.1487C138.992 9.80228 138.574 9.48748 138.047 9.22232C137.52 8.95717 136.894 8.7469 136.205 8.60334C135.517 8.45985 134.779 8.38601 134.034 8.38601C133.288 8.38601 132.551 8.45985 131.862 8.60334C131.174 8.7469 130.548 8.95717 130.021 9.22232C129.494 9.48748 129.076 9.80228 128.791 10.1487C128.505 10.4951 128.359 10.8664 128.359 11.2414V18.8558C128.359 19.3814 127.952 19.8075 127.451 19.8075H126.316C126.19 19.8075 126.089 19.701 126.089 19.5696V11.2414C126.089 9.97924 126.925 8.76879 128.415 7.87633C129.906 6.98378 131.926 6.48242 134.034 6.48242C136.141 6.48242 138.162 6.98378 139.652 7.87633ZM125.862 23.6147C125.36 23.6147 124.954 24.0409 124.954 24.5665V25.2804C124.954 25.4118 125.055 25.5183 125.181 25.5183H142.206C142.708 25.5183 143.114 25.0922 143.114 24.5665V23.8527C143.114 23.7213 143.013 23.6147 142.887 23.6147H125.862ZM118.143 7.43422C118.143 6.90859 118.55 6.48242 119.051 6.48242H120.186C120.312 6.48242 120.413 6.58894 120.413 6.72037V24.5665C120.413 25.0922 120.007 25.5183 119.505 25.5183H118.37C118.245 25.5183 118.143 25.4118 118.143 25.2804V14.0968H115.419V17.4281C115.419 18.3116 114.725 19.1589 113.491 19.7836C112.256 20.4084 110.582 20.7593 108.836 20.7593C107.09 20.7593 105.416 20.4084 104.181 19.7836C102.947 19.1589 102.253 18.3116 102.253 17.4281V7.43422C102.253 6.90859 102.659 6.48242 103.161 6.48242H104.296C104.422 6.48242 104.523 6.58894 104.523 6.72037V12.1932H113.149V7.43422C113.149 6.90859 113.556 6.48242 114.057 6.48242H115.192C115.318 6.48242 115.419 6.58894 115.419 6.72037V12.1932H118.143V7.43422ZM104.523 17.4281V14.0968H113.149V17.4281C113.149 17.6156 113.038 17.8012 112.821 17.9744C112.604 18.1476 112.287 18.305 111.886 18.4376C111.485 18.5701 111.01 18.6753 110.486 18.7471C109.964 18.8188 109.403 18.8558 108.836 18.8558C108.269 18.8558 107.709 18.8188 107.186 18.7471C106.662 18.6753 106.187 18.5701 105.786 18.4376C105.386 18.305 105.068 18.1476 104.851 17.9744C104.634 17.8012 104.523 17.6156 104.523 17.4281Z" fill="#181F29"/>
</svg>
