<svg width="48" height="48" viewBox="0 0 48 48" fill="none" xmlns="http://www.w3.org/2000/svg">
<rect width="48" height="48" fill="white"/>
<mask id="mask0_15301_31103" style="mask-type:alpha" maskUnits="userSpaceOnUse" x="12" y="12" width="24" height="24">
<rect x="12" y="12" width="24" height="24" fill="#D9D9D9"/>
</mask>
<g mask="url(#mask0_15301_31103)">
<path d="M16 19C15.7167 19 15.4792 18.9042 15.2875 18.7125C15.0958 18.5208 15 18.2833 15 18C15 17.7167 15.0958 17.4792 15.2875 17.2875C15.4792 17.0958 15.7167 17 16 17H32C32.2833 17 32.5208 17.0958 32.7125 17.2875C32.9042 17.4792 33 17.7167 33 18C33 18.2833 32.9042 18.5208 32.7125 18.7125C32.5208 18.9042 32.2833 19 32 19H16ZM16 31C15.7167 31 15.4792 30.9042 15.2875 30.7125C15.0958 30.5208 15 30.2833 15 30C15 29.7167 15.0958 29.4792 15.2875 29.2875C15.4792 29.0958 15.7167 29 16 29H32C32.2833 29 32.5208 29.0958 32.7125 29.2875C32.9042 29.4792 33 29.7167 33 30C33 30.2833 32.9042 30.5208 32.7125 30.7125C32.5208 30.9042 32.2833 31 32 31H16ZM16 25C15.7167 25 15.4792 24.9042 15.2875 24.7125C15.0958 24.5208 15 24.2833 15 24C15 23.7167 15.0958 23.4792 15.2875 23.2875C15.4792 23.0958 15.7167 23 16 23H32C32.2833 23 32.5208 23.0958 32.7125 23.2875C32.9042 23.4792 33 23.7167 33 24C33 24.2833 32.9042 24.5208 32.7125 24.7125C32.5208 24.9042 32.2833 25 32 25H16Z" fill="#181F29"/>
</g>
</svg>
