<svg width="106" height="23" viewBox="0 0 106 23" fill="none" xmlns="http://www.w3.org/2000/svg">
<path fill-rule="evenodd" clip-rule="evenodd" d="M6.34007 2.94922H31.9998C32.4646 2.94922 32.9249 3.04488 33.3543 3.23073C33.7837 3.41652 34.1738 3.6889 34.5025 4.03227C34.8312 4.37569 35.0919 4.7833 35.2697 5.23195C35.4476 5.68061 35.5391 6.16148 35.5391 6.64708V15.1984C35.5391 15.684 35.4476 16.1648 35.2697 16.6135C35.0919 17.0621 34.8312 17.4698 34.5025 17.8131C34.1738 18.1565 33.7837 18.4289 33.3543 18.6147C32.9249 18.8006 32.4646 18.8962 31.9998 18.8962H23.765C22.4558 19.6414 20.8416 20.0518 19.17 20.0518C17.4983 20.0518 15.8841 19.6414 14.575 18.8962H6.34007C5.87529 18.8962 5.41505 18.8006 4.98563 18.6147C4.55621 18.4289 4.16608 18.1565 3.83739 17.8131C3.50875 17.4698 3.24804 17.0621 3.07022 16.6135C2.89234 16.1648 2.80078 15.684 2.80078 15.1984V6.64708C2.80078 5.66636 3.17367 4.72578 3.83739 4.03227C4.50116 3.33881 5.40141 2.94922 6.34007 2.94922ZM6.34007 17.0473H12.4854C11.9408 16.2683 11.649 15.3977 11.649 14.505C11.649 14.0801 11.7291 13.6594 11.8847 13.2668C12.0404 12.8742 12.2685 12.5175 12.556 12.2171C12.8436 11.9166 13.185 11.6783 13.5607 11.5157C13.9365 11.3531 14.3392 11.2694 14.7459 11.2694C15.1525 11.2694 15.5553 11.3531 15.931 11.5157C16.3067 11.6783 16.6481 11.9166 16.9357 12.2171C17.2232 12.5175 17.4514 12.8742 17.607 13.2668C17.7626 13.6594 17.8427 14.0801 17.8427 14.505C17.8427 15.6783 17.3387 16.8132 16.4191 17.7525C17.2556 18.0454 18.2001 18.2029 19.17 18.2029C20.1398 18.2029 21.0843 18.0454 21.9209 17.7525C21.0012 16.8132 20.4972 15.6783 20.4972 14.505C20.4972 14.0801 20.5773 13.6594 20.7329 13.2668C20.8886 12.8742 21.1167 12.5175 21.4042 12.2171C21.6918 11.9166 22.0332 11.6783 22.4089 11.5157C22.7847 11.3531 23.1874 11.2694 23.5941 11.2694C24.0008 11.2694 24.4035 11.3531 24.7792 11.5157C25.1549 11.6783 25.4963 11.9166 25.7839 12.2171C26.0715 12.5175 26.2996 12.8742 26.4552 13.2668C26.6108 13.6594 26.6909 14.0801 26.6909 14.505C26.6909 15.3977 26.3991 16.2683 25.8545 17.0473H31.9998C32.2322 17.0473 32.4624 16.9994 32.6771 16.9066C32.8918 16.8136 33.0869 16.6774 33.2512 16.5057C33.4155 16.334 33.5459 16.1302 33.6348 15.9059C33.7237 15.6816 33.7695 15.4412 33.7695 15.1984V6.64708C33.7695 6.40428 33.7237 6.16382 33.6348 5.93955C33.5459 5.71522 33.4155 5.51135 33.2512 5.3397C33.0869 5.16799 32.8918 5.0318 32.6771 4.93887C32.4624 4.84595 32.2322 4.79812 31.9998 4.79812H6.34007C5.87071 4.79812 5.42061 4.99292 5.08876 5.3397C4.75684 5.68643 4.5704 6.15669 4.5704 6.64708V15.1984C4.5704 15.4412 4.61618 15.6816 4.70512 15.9059C4.79406 16.1302 4.92441 16.334 5.08876 16.5057C5.25305 16.6774 5.44817 16.8136 5.66288 16.9066C5.87753 16.9994 6.10768 17.0473 6.34007 17.0473ZM14.7459 16.8679C15.6 16.2067 16.0731 15.3716 16.0731 14.505C16.0731 14.3229 16.0388 14.1426 15.9721 13.9743C15.9053 13.8061 15.8076 13.6533 15.6844 13.5245C15.5611 13.3957 15.4148 13.2935 15.2537 13.2239C15.0927 13.1542 14.9201 13.1183 14.7459 13.1183C14.5716 13.1183 14.399 13.1542 14.2379 13.2239C14.0769 13.2935 13.9306 13.3957 13.8074 13.5245C13.6841 13.6533 13.5864 13.8061 13.5196 13.9743C13.453 14.1426 13.4186 14.3229 13.4186 14.505C13.4186 15.3716 13.8917 16.2067 14.7459 16.8679ZM24.9213 14.505C24.9213 15.3716 24.4483 16.2067 23.5941 16.8679C22.7399 16.2067 22.2668 15.3716 22.2668 14.505C22.2668 14.3229 22.3012 14.1426 22.3678 13.9743C22.4346 13.8061 22.5323 13.6533 22.6556 13.5245C22.7788 13.3957 22.9251 13.2935 23.0862 13.2239C23.2472 13.1542 23.4198 13.1183 23.5941 13.1183C23.7683 13.1183 23.9409 13.1542 24.102 13.2239C24.263 13.2935 24.4093 13.3957 24.5326 13.5245C24.6558 13.6533 24.7535 13.8061 24.8203 13.9743C24.887 14.1426 24.9213 14.3229 24.9213 14.505Z" fill="black"/>
<path fill-rule="evenodd" clip-rule="evenodd" d="M53.1093 4.65918C52.7475 4.65918 52.4545 4.96549 52.4545 5.34328V8.76379H51.145V4.83021C51.145 4.73574 51.0719 4.65918 50.9813 4.65918H50.1628C49.8011 4.65918 49.5081 4.96549 49.5081 5.34328V14.0656C49.5081 14.1601 49.5812 14.2366 49.6718 14.2366H50.4902C50.852 14.2366 51.145 13.9303 51.145 13.5525V10.132H52.4545V14.0656C52.4545 14.1601 52.5276 14.2366 52.6182 14.2366H53.4367C53.7984 14.2366 54.0914 13.9303 54.0914 13.5525V4.83021C54.0914 4.73574 54.0183 4.65918 53.9277 4.65918H53.1093ZM41.3235 15.2628C41.3235 15.0738 41.4703 14.9207 41.6509 14.9207H42.7967C42.8873 14.9207 42.9604 14.9973 42.9604 15.0917V15.6048C42.9604 15.9677 43.4777 16.3157 44.3987 16.5723C45.3197 16.8289 46.5687 16.973 47.8711 16.973H53.9277C54.0183 16.973 54.0914 17.0496 54.0914 17.1441V17.6571C54.0914 18.0349 53.7984 18.3412 53.4367 18.3412H47.8711C46.1344 18.3412 44.4691 18.0529 43.2414 17.5397C42.0132 17.0266 41.3235 16.3305 41.3235 15.6048V15.2628ZM44.9247 8.76379C42.7552 8.76379 40.9961 9.98891 40.9961 11.5002C40.9961 13.0115 42.7552 14.2366 44.9247 14.2366C47.0942 14.2366 48.8533 13.0115 48.8533 11.5002C48.8533 9.98891 47.0942 8.76379 44.9247 8.76379ZM44.9247 10.132C43.6588 10.132 42.633 10.7446 42.633 11.5002C42.633 12.2559 43.6588 12.8684 44.9247 12.8684C46.1906 12.8684 47.2164 12.2559 47.2164 11.5002C47.2164 10.7446 46.1906 10.132 44.9247 10.132ZM41.6509 6.71149C41.2891 6.71149 40.9961 7.01779 40.9961 7.39559V7.90867C40.9961 8.00313 41.0692 8.07969 41.1598 8.07969H48.1985C48.5603 8.07969 48.8533 7.77339 48.8533 7.39559V6.88251C48.8533 6.78805 48.7802 6.71149 48.6896 6.71149H41.6509ZM42.3056 5.34328C42.3056 4.96549 42.5986 4.65918 42.9604 4.65918H47.3801C47.4707 4.65918 47.5438 4.73574 47.5438 4.83021V5.34328C47.5438 5.72108 47.2508 6.02738 46.889 6.02738H42.4693C42.3787 6.02738 42.3056 5.95082 42.3056 5.85636V5.34328ZM69.4785 4.65918C69.1167 4.65918 68.8237 4.96549 68.8237 5.34328V18.1702C68.8237 18.2647 68.8968 18.3412 68.9874 18.3412H69.8059C70.1676 18.3412 70.4606 18.0349 70.4606 17.6571V4.83021C70.4606 4.73574 70.3875 4.65918 70.2969 4.65918H69.4785ZM65.5499 12.1843C65.3693 12.1843 65.2225 12.3374 65.2225 12.5264C65.2225 12.6611 65.1423 12.7945 64.9857 12.919C64.8296 13.0435 64.6005 13.1566 64.3118 13.252C64.0226 13.3472 63.68 13.4228 63.3024 13.4744C62.9253 13.5259 62.521 13.5525 62.1123 13.5525C61.7037 13.5525 61.2993 13.5259 60.9223 13.4744C60.5447 13.4228 60.2021 13.3472 59.9129 13.252C59.6242 13.1566 59.3951 13.0435 59.239 12.919C59.0824 12.7945 59.0022 12.6611 59.0022 12.5264V6.02738H66.2046C66.5664 6.02738 66.8594 5.72108 66.8594 5.34328V4.83021C66.8594 4.73574 66.7863 4.65918 66.6957 4.65918H58.02C57.6583 4.65918 57.3653 4.96549 57.3653 5.34328V6.02738V12.5264C57.3653 13.1614 57.8656 13.7704 58.7556 14.2194C59.646 14.6685 60.8535 14.9207 62.1123 14.9207C63.3711 14.9207 64.5786 14.6685 65.4691 14.2194C66.359 13.7704 66.8594 13.1614 66.8594 12.5264V12.3553C66.8594 12.2609 66.7863 12.1843 66.6957 12.1843H65.5499ZM100.703 5.66105C101.777 6.30251 102.381 7.17252 102.381 8.07969V13.5525C102.381 13.9303 102.088 14.2366 101.726 14.2366H100.907C100.817 14.2366 100.744 14.1601 100.744 14.0656V8.07969C100.744 7.81016 100.638 7.5433 100.432 7.29429C100.226 7.04533 99.9251 6.81906 99.5448 6.62848C99.1651 6.4379 98.7138 6.28677 98.2173 6.18359C97.7208 6.08046 97.1888 6.02738 96.6513 6.02738C96.1139 6.02738 95.5819 6.08046 95.0853 6.18359C94.5888 6.28677 94.1375 6.4379 93.7578 6.62848C93.3775 6.81906 93.0763 7.04533 92.8706 7.29429C92.6649 7.5433 92.559 7.81016 92.559 8.07969V13.5525C92.559 13.9303 92.266 14.2366 91.9042 14.2366H91.0858C90.9952 14.2366 90.9221 14.1601 90.9221 14.0656V8.07969C90.9221 7.17252 91.5256 6.30251 92.5999 5.66105C93.6748 5.01953 95.1317 4.65918 96.6513 4.65918C98.1709 4.65918 99.6278 5.01953 100.703 5.66105ZM90.7584 16.973C90.3966 16.973 90.1036 17.2793 90.1036 17.6571V18.1702C90.1036 18.2647 90.1768 18.3412 90.2673 18.3412H102.544C102.906 18.3412 103.199 18.0349 103.199 17.6571V17.1441C103.199 17.0496 103.126 16.973 103.035 16.973H90.7584ZM85.1929 5.34328C85.1929 4.96549 85.4859 4.65918 85.8476 4.65918H86.6661C86.7567 4.65918 86.8298 4.73574 86.8298 4.83021V17.6571C86.8298 18.0349 86.5368 18.3412 86.175 18.3412H85.3566C85.266 18.3412 85.1929 18.2647 85.1929 18.1702V10.132H83.2286V12.5264C83.2286 13.1614 82.7282 13.7704 81.8383 14.2194C80.9478 14.6685 79.7403 14.9207 78.4815 14.9207C77.2227 14.9207 76.0152 14.6685 75.1247 14.2194C74.2348 13.7704 73.7345 13.1614 73.7345 12.5264V5.34328C73.7345 4.96549 74.0275 4.65918 74.3892 4.65918H75.2077C75.2983 4.65918 75.3714 4.73574 75.3714 4.83021V8.76379H81.5917V5.34328C81.5917 4.96549 81.8847 4.65918 82.2464 4.65918H83.0649C83.1555 4.65918 83.2286 4.73574 83.2286 4.83021V8.76379H85.1929V5.34328ZM75.3714 12.5264V10.132H81.5917V12.5264C81.5917 12.6611 81.5115 12.7945 81.3549 12.919C81.1988 13.0435 80.9696 13.1566 80.681 13.252C80.3918 13.3472 80.0491 13.4228 79.6716 13.4744C79.2945 13.5259 78.8902 13.5525 78.4815 13.5525C78.0728 13.5525 77.6685 13.5259 77.2915 13.4744C76.9139 13.4228 76.5712 13.3472 76.282 13.252C75.9934 13.1566 75.7642 13.0435 75.6082 12.919C75.4516 12.7945 75.3714 12.6611 75.3714 12.5264Z" fill="black"/>
</svg>
